<svg version="1.1" id="Layer_1" xmlns="http://www.w3.org/2000/svg" xmlns:xlink="http://www.w3.org/1999/xlink" x="0px" y="0px"
	 width="100%" viewBox="0 0 480 480" enable-background="new 0 0 480 480" xml:space="preserve">
<path fill="#000000" opacity="1.000000" stroke="none" 
	d="
M249.854858,80.714195 
	C316.344482,87.051392 364.434357,119.680588 389.474579,181.213409 
	C412.957886,238.920258 403.687500,293.761078 364.931122,342.636444 
	C338.962708,375.385040 304.194916,394.186646 262.945221,399.962128 
	C200.944519,408.642883 138.548676,380.694611 104.234962,324.960358 
	C85.804573,295.024658 77.888008,262.330109 80.963097,227.578156 
	C87.509666,153.594559 141.489456,95.521957 213.561935,82.852959 
	C225.405258,80.771126 237.369415,80.305344 249.854858,80.714195 
M315.354553,287.857880 
	C321.669159,277.988922 326.437164,267.393494 330.049805,256.274109 
	C333.117371,246.832458 332.956909,246.404739 324.004669,242.382797 
	C300.014038,231.604614 275.283356,222.714920 250.568649,213.791229 
	C249.391495,213.366196 248.134064,212.574936 246.313629,213.997498 
	C246.313629,215.746124 246.313492,217.877853 246.313660,220.009598 
	C246.316345,254.624832 246.318054,289.240082 246.322556,323.855316 
	C246.323517,331.189301 246.795090,331.583710 254.006226,330.132721 
	C280.212372,324.859741 300.112152,310.358215 315.354553,287.857880 
M154.755295,262.781586 
	C158.614441,272.201874 163.241974,281.215393 169.119614,289.546631 
	C183.541702,309.989197 202.125549,324.426453 226.977249,330.092590 
	C231.912857,331.217896 232.722031,329.371094 232.712463,325.139252 
	C232.631485,289.356873 232.674438,253.574203 232.638992,217.791687 
	C232.637436,216.220322 233.153702,214.427780 231.301788,212.921173 
	C225.736740,213.954529 220.443527,216.403732 215.050507,218.465973 
	C195.172073,226.067276 174.973694,232.873062 155.686935,241.957520 
	C149.833847,244.714462 149.378616,245.976624 151.193573,252.121262 
	C152.181808,255.466965 153.364227,258.755341 154.755295,262.781586 
M246.326462,177.381989 
	C232.650116,176.859558 219.087570,178.529144 205.477737,179.383911 
	C195.823700,179.990265 189.194656,183.768204 186.170822,193.521881 
	C184.358459,199.367859 181.315933,204.827698 178.921616,210.501297 
	C178.312012,211.945816 177.085968,213.356705 177.984451,215.214493 
	C180.274796,216.316452 182.185623,214.852371 184.123383,214.172485 
	C199.043442,208.937729 214.014114,203.829666 228.794662,198.222565 
	C235.919373,195.519775 242.597504,195.568176 249.641449,198.188156 
	C264.926788,203.873489 280.302826,209.315384 295.653137,214.825195 
	C297.446960,215.469086 299.205444,216.788864 301.250610,215.618652 
	C302.106476,213.552505 300.893799,211.979034 300.166779,210.368515 
	C296.948700,203.239548 293.526703,196.199951 290.433563,189.018158 
	C288.219971,183.878662 284.293182,181.262451 279.034058,180.451172 
	C268.511932,178.827988 257.900177,178.054184 246.326462,177.381989 
z"/>
</svg>