<?xml version="1.0" encoding="UTF-8" standalone="no"?>
<svg
   version="1.1"
   id="Layer_1"
   x="0px"
   y="0px"
   width="100%"
   viewBox="0 0 480 480"
   enable-background="new 0 0 480 480"
   xml:space="preserve"
   sodipodi:docname="Logo-light.svg"
   inkscape:version="1.3 (0e150ed6c4, 2023-07-21)"
   xmlns:inkscape="http://www.inkscape.org/namespaces/inkscape"
   xmlns:sodipodi="http://sodipodi.sourceforge.net/DTD/sodipodi-0.dtd"
   xmlns="http://www.w3.org/2000/svg"
   xmlns:svg="http://www.w3.org/2000/svg"><defs
   id="defs1" /><sodipodi:namedview
   id="namedview1"
   pagecolor="#ffffff"
   bordercolor="#666666"
   borderopacity="1.0"
   inkscape:showpageshadow="2"
   inkscape:pageopacity="0.0"
   inkscape:pagecheckerboard="0"
   inkscape:deskcolor="#d1d1d1"
   inkscape:zoom="2.6796401"
   inkscape:cx="253.39224"
   inkscape:cy="249.47381"
   inkscape:window-width="2880"
   inkscape:window-height="1514"
   inkscape:window-x="8629"
   inkscape:window-y="1635"
   inkscape:window-maximized="1"
   inkscape:current-layer="Layer_1"
   showgrid="false"><inkscape:grid
     id="grid1"
     units="mm"
     originx="0"
     originy="0"
     spacingx="3.7795276"
     spacingy="3.7795276"
     empcolor="#0099e5"
     empopacity="0.30196078"
     color="#0099e5"
     opacity="0.14901961"
     empspacing="5"
     dotted="false"
     gridanglex="30"
     gridanglez="30"
     visible="false" /></sodipodi:namedview>&#10;<path
   fill="#000000"
   opacity="1"
   stroke="none"
   d="m 236.7934,79.967826 c 66.48962,6.337197 114.5795,38.966394 139.61972,100.499214 23.48331,57.70685 14.21292,112.54767 -24.54346,161.42303 -25.96841,32.7486 -60.7362,51.55021 -101.9859,57.32569 C 187.88306,407.89651 125.48722,379.94824 91.173504,324.21399 72.743117,294.27829 64.826552,261.58374 67.901641,226.83179 74.44821,152.84819 128.428,94.775588 200.50047,82.10659 212.3438,80.024757 224.30795,79.558975 236.7934,79.967826 m 65.49969,207.143684 c 6.31461,-9.86896 11.08261,-20.46439 14.69525,-31.58377 3.06757,-9.44165 2.90711,-9.86937 -6.04513,-13.89131 -23.99063,-10.77819 -48.72131,-19.66788 -73.43602,-28.59157 -1.17716,-0.42503 -2.43459,-1.21629 -4.25502,0.20627 0,1.74862 -1.4e-4,3.88035 3e-5,6.0121 0.003,34.61523 0.004,69.23048 0.009,103.84572 9.6e-4,7.33398 0.47253,7.72839 7.68367,6.2774 26.20614,-5.27298 46.10592,-19.77451 61.34832,-42.27484 M 141.69383,262.03522 c 3.85915,9.42028 8.48668,18.4338 14.36432,26.76504 14.42209,20.44257 33.00594,34.87982 57.85764,40.54596 4.93561,1.12531 5.74478,-0.7215 5.73521,-4.95334 -0.081,-35.78238 -0.038,-71.56505 -0.0735,-107.34756 -0.002,-1.57137 0.51471,-3.36391 -1.3372,-4.87052 -5.56505,1.03336 -10.85826,3.48256 -16.25128,5.5448 -19.87844,7.60131 -40.07682,14.40709 -59.36358,23.49155 -5.85308,2.75694 -6.30831,4.0191 -4.49336,10.16374 0.98824,3.3457 2.17066,6.63408 3.56172,10.66033 m 91.57117,-85.3996 c -13.67634,-0.52243 -27.23889,1.14715 -40.84872,2.00192 -9.65404,0.60635 -16.28308,4.38429 -19.30692,14.13797 -1.81236,5.84598 -4.85489,11.30582 -7.2492,16.97942 -0.60961,1.44452 -1.83565,2.8554 -0.93717,4.71319 2.29035,1.10196 4.20117,-0.36212 6.13893,-1.04201 14.92006,-5.23475 29.89073,-10.34281 44.67128,-15.94992 7.12471,-2.70279 13.80284,-2.65438 20.84679,-0.0344 15.28534,5.68533 30.66138,11.12722 46.01169,16.63703 1.79382,0.6439 3.5523,1.96367 5.59747,0.79346 0.85587,-2.06615 -0.35681,-3.63962 -1.08383,-5.25014 -3.21808,-7.12896 -6.64008,-14.16856 -9.73322,-21.35035 -2.21359,-5.1395 -6.14038,-7.75571 -11.3995,-8.56699 -10.52213,-1.62318 -21.13388,-2.39699 -32.7076,-3.06918 z"
   id="path1"
   inkscape:highlight-color="#cbcbcb"
   style="fill:#ffffff" />&#10;</svg>
